<svg width="102" height="79" viewBox="0 0 102 79" fill="none" xmlns="http://www.w3.org/2000/svg">
<path d="M101.212 64.9194C101.993 64.1383 101.993 62.872 101.212 62.0909L88.4842 49.363C87.7032 48.582 86.4369 48.582 85.6558 49.363C84.8748 50.1441 84.8748 51.4104 85.6558 52.1915L96.9696 63.5052L85.6559 74.8189C84.8748 75.5999 84.8748 76.8663 85.6559 77.6473C86.4369 78.4284 87.7033 78.4284 88.4843 77.6473L101.212 64.9194ZM0.199163 2.23557C10.6818 24.3658 24.145 40.2267 40.7886 50.5368C57.4283 60.8446 77.0871 65.5052 99.798 65.5051L99.798 61.5051C77.6392 61.5052 58.7565 56.962 42.895 47.1364C27.0374 37.3132 14.0398 22.1111 3.81412 0.523242L0.199163 2.23557Z" fill="#F89958"/>
</svg>
