<svg width="102" height="79" viewBox="0 0 102 79" fill="none" xmlns="http://www.w3.org/2000/svg">
<path d="M0.68819 64.9194C-0.0928577 64.1383 -0.0928556 62.872 0.688196 62.0909L13.4161 49.363C14.1972 48.582 15.4635 48.582 16.2446 49.363C17.0256 50.1441 17.0256 51.4104 16.2446 52.1915L4.93083 63.5052L16.2445 74.8189C17.0256 75.5999 17.0256 76.8663 16.2445 77.6473C15.4635 78.4284 14.1971 78.4284 13.4161 77.6473L0.68819 64.9194ZM101.701 2.23557C91.2186 24.3658 77.7554 40.2267 61.1118 50.5368C44.4721 60.8446 24.8133 65.5052 2.1024 65.5051L2.10241 61.5051C24.2612 61.5052 43.1439 56.962 59.0054 47.1364C74.863 37.3132 87.8606 22.1111 98.0863 0.523242L101.701 2.23557Z" fill="#93BCB4"/>
</svg>
