<svg width="102" height="79" viewBox="0 0 102 79" fill="none" xmlns="http://www.w3.org/2000/svg">
<path d="M101.212 13.8133C101.993 14.5944 101.993 15.8607 101.212 16.6417L88.4842 29.3696C87.7032 30.1507 86.4369 30.1507 85.6558 29.3696C84.8748 28.5886 84.8748 27.3222 85.6558 26.5412L96.9696 15.2275L85.6559 3.91378C84.8748 3.13273 84.8748 1.8664 85.6559 1.08535C86.4369 0.304309 87.7033 0.304313 88.4843 1.08536L101.212 13.8133ZM0.199163 76.4971C10.6818 54.3668 24.145 38.5059 40.7886 28.1958C57.4283 17.8881 77.0871 13.2275 99.798 13.2275L99.798 17.2275C77.6392 17.2275 58.7565 21.7706 42.895 31.5962C27.0374 41.4195 14.0398 56.6215 3.81412 78.2094L0.199163 76.4971Z" fill="#F37653"/>
</svg>
