<svg width="102" height="79" viewBox="0 0 102 79" fill="none" xmlns="http://www.w3.org/2000/svg">
<path d="M0.68819 13.8133C-0.0928577 14.5944 -0.0928556 15.8607 0.688196 16.6417L13.4161 29.3696C14.1972 30.1507 15.4635 30.1507 16.2446 29.3696C17.0256 28.5886 17.0256 27.3222 16.2446 26.5412L4.93083 15.2275L16.2445 3.91378C17.0256 3.13273 17.0256 1.8664 16.2445 1.08535C15.4635 0.304309 14.1971 0.304313 13.4161 1.08536L0.68819 13.8133ZM101.701 76.4971C91.2186 54.3668 77.7554 38.5059 61.1118 28.1958C44.4721 17.8881 24.8133 13.2275 2.1024 13.2275L2.10241 17.2275C24.2612 17.2275 43.1439 21.7706 59.0054 31.5962C74.863 41.4195 87.8606 56.6215 98.0863 78.2094L101.701 76.4971Z" fill="#686CB2"/>
</svg>
