<svg width="19" height="47" viewBox="0 0 19 47" fill="none" xmlns="http://www.w3.org/2000/svg">
<path d="M8.61058 12.013C8.83158 12.274 9.15658 12.425 9.49858 12.425C9.84158 12.425 10.1666 12.276 10.3886 12.014C11.3826 10.839 12.8576 8.681 12.8576 6.212C12.8576 3.745 11.3836 1.588 10.3896 0.412C10.1676 0.151 9.84358 0 9.50058 0C9.15858 0 8.83258 0.149 8.61158 0.411C7.61658 1.586 6.14358 3.744 6.14258 6.212C6.14358 8.68 7.61558 10.838 8.61058 12.013Z" fill="#686CB2"/>
<path d="M9.50571 20.1C9.68771 20.108 14.0597 20.282 16.6387 17.704C18.3827 15.959 18.8677 13.391 18.9957 11.857C19.0237 11.516 18.9007 11.179 18.6587 10.937C18.4167 10.695 18.0797 10.572 17.7377 10.601C16.2037 10.729 13.6337 11.213 11.8877 12.957C9.96171 14.885 9.57371 17.817 9.50371 19.25C9.43471 17.817 9.04571 14.885 7.11871 12.957C5.37271 11.212 2.80471 10.728 1.26971 10.601C0.92871 10.572 0.59171 10.696 0.34971 10.938C0.10771 11.181 -0.0142896 11.517 0.0137104 11.858C0.14171 13.392 0.625709 15.96 2.36971 17.704C4.95171 20.282 9.32271 20.108 9.50571 20.1Z" fill="#686CB2"/>
<path d="M11.8897 22.209C9.96366 24.137 9.57566 27.068 9.50566 28.502C9.43666 27.068 9.04766 24.137 7.12066 22.209C5.37466 20.464 2.80666 19.98 1.27166 19.853C0.930663 19.825 0.593663 19.948 0.351663 20.19C0.109663 20.432 -0.0123365 20.769 0.0156635 21.11C0.143664 22.644 0.627663 25.213 2.37166 26.956C4.95066 29.535 9.32066 29.36 9.50466 29.352C9.68666 29.361 14.0587 29.536 16.6377 26.956C18.3827 25.211 18.8667 22.643 18.9947 21.108C19.0227 20.767 18.8997 20.43 18.6577 20.189C18.4157 19.947 18.0787 19.824 17.7367 19.853C16.2037 19.98 13.6357 20.464 11.8897 22.209Z" fill="#686CB2"/>
<path d="M11.8896 31.463C9.96361 33.391 9.57561 36.321 9.50562 37.756C9.43661 36.321 9.04762 33.391 7.12061 31.463C5.37561 29.717 2.80761 29.234 1.27361 29.107C0.931614 29.079 0.595614 29.202 0.353614 29.443C0.111614 29.684 -0.0123859 30.022 0.0156141 30.362C0.143614 31.895 0.626614 34.466 2.37161 36.209C4.13561 37.974 6.73961 38.449 8.26661 38.571V45.239C8.26661 45.995 8.79062 46.608 9.54762 46.608C10.3036 46.608 10.8286 45.995 10.8286 45.239V38.564C12.3656 38.432 14.9046 37.942 16.6376 36.21C18.3816 34.466 18.8666 31.898 18.9946 30.363C19.0226 30.022 18.8996 29.684 18.6576 29.443C18.4156 29.201 18.0786 29.078 17.7366 29.107C16.2036 29.233 13.6356 29.717 11.8896 31.463Z" fill="#686CB2"/>
</svg>
