<svg width="53" height="53" viewBox="0 0 53 53" fill="none" xmlns="http://www.w3.org/2000/svg">
<path fill-rule="evenodd" clip-rule="evenodd" d="M26.5 53C41.1356 53 53 41.1356 53 26.5C53 11.8645 41.1356 0 26.5 0C11.8645 0 0 11.8645 0 26.5C0 41.1356 11.8645 53 26.5 53ZM42.5871 25.0268L31.4677 13.9074C30.7854 13.225 29.6791 13.225 28.9967 13.9074C28.3144 14.5897 28.3144 15.696 28.9967 16.3784L37.1334 24.5151H9.9011V28.0096H37.1334L28.9967 36.1463C28.3144 36.8286 28.3144 37.9349 28.9967 38.6172C29.6791 39.2996 30.7854 39.2996 31.4677 38.6172L42.5871 27.4978C43.2695 26.8155 43.2695 25.7092 42.5871 25.0268Z" fill="white"/>
</svg>
