<svg width="140" height="72" viewBox="0 0 140 72" fill="none" xmlns="http://www.w3.org/2000/svg">
<g clip-path="url(#clip0_486_1741)">
<path d="M41.357 40.8684C42.7496 42.2544 44.0696 43.5691 45.4278 44.9207C45.3375 45.0225 45.2254 45.1689 45.0956 45.2962C37.6121 52.5798 28.7322 55.0425 18.7728 52.0453C8.788 49.0392 2.58122 42.0737 0.531811 31.8361C-2.2508 17.9395 6.14159 4.66272 19.7326 1.25443C28.3159 -0.897698 36.1151 0.952805 43.0195 6.50431C43.9194 7.22848 44.3229 8.17409 44.104 9.31825C43.8965 10.3988 43.2537 11.1598 42.1946 11.5035C41.1165 11.8535 40.163 11.5926 39.2936 10.8722C36.6128 8.64881 33.5489 7.23102 30.1349 6.54504C18.8721 4.28091 7.89186 11.9095 6.08685 23.2568C4.4015 33.8546 10.4466 43.7638 20.5434 46.6058C28.097 48.7312 34.8358 46.9927 40.6213 41.6664C40.8861 41.4233 41.1114 41.1382 41.3583 40.8697L41.357 40.8684Z" fill="#F89958"/>
<path d="M44.4739 17.6834C46.0918 17.6834 47.6219 17.7942 49.129 17.6504C50.4669 17.5231 51.0384 18.0156 51.5667 19.2272C55.3536 27.9058 59.2335 36.5423 63.0854 45.1928C63.177 45.399 63.2763 45.6013 63.4163 45.903C64.6192 43.2023 65.775 40.6149 66.927 38.025C69.6575 31.8906 72.3853 25.7549 75.117 19.6205C75.784 18.1225 77.1626 17.3958 78.6074 17.7611C80.4659 18.2307 81.3391 20.1487 80.5219 21.9953C78.6685 26.1787 76.8075 30.3582 74.9503 34.5391C69.7898 46.1537 64.6307 57.7683 59.4677 69.3817C58.8249 70.8275 57.5532 71.5771 56.1925 71.334C54.1698 70.9713 53.1349 68.9872 53.9903 67.059C55.3472 63.9995 56.7258 60.9501 58.0955 57.8956C58.7281 56.4842 59.3455 55.0664 60.0011 53.6664C60.1729 53.3012 60.1513 53.0174 59.9921 52.6585C54.9106 41.2398 49.8406 29.8173 44.7705 18.3949C44.6789 18.1887 44.5961 17.9774 44.4727 17.6834H44.4739Z" fill="#F89958"/>
<path d="M111.315 43.4888C112.586 44.7539 113.741 45.9019 114.958 47.1122C114.755 47.3184 114.517 47.5755 114.265 47.8185C109.141 52.7553 103.083 54.4289 96.2904 52.3799C89.5579 50.3487 85.3521 45.6677 83.8437 38.7798C81.2877 27.1028 90.6959 16.2849 102.638 17.088C106.428 17.3425 109.809 18.6941 112.758 21.0982C114.029 22.133 114.249 23.6322 113.313 24.7903C112.389 25.9332 110.85 26.0236 109.582 25.008C101.904 18.8608 90.6704 22.9207 88.7636 32.5309C87.0668 41.0809 93.8667 48.7667 102.557 48.0794C105.839 47.8198 108.62 46.4351 110.9 44.059C111.073 43.8783 111.198 43.6517 111.315 43.4876V43.4888Z" fill="#F89958"/>
<path d="M121.035 0.470267H126.737C126.751 0.682807 126.773 0.866076 126.773 1.04934C126.808 17.4137 126.84 33.7793 126.87 50.1437C126.873 51.7816 125.947 52.9703 124.496 53.216C122.731 53.515 121.168 52.2398 121.145 50.4504C121.119 48.479 121.124 46.5076 121.12 44.5362C121.091 30.0796 121.063 15.6217 121.035 1.16516C121.035 0.955165 121.035 0.74517 121.035 0.468994V0.470267Z" fill="#F89958"/>
<path d="M136.263 53.314C134.213 53.3089 132.54 51.6416 132.533 49.5952C132.526 47.5359 134.253 45.8241 136.31 45.8521C138.361 45.8789 140.012 47.5601 140.001 49.6091C139.991 51.6582 138.316 53.3191 136.264 53.314H136.263Z" fill="#F89958"/>
</g>
<defs>
<clipPath id="clip0_486_1741">
<rect width="140" height="71" fill="white" transform="translate(0 0.379883)"/>
</clipPath>
</defs>
</svg>
