<svg width="41" height="40" viewBox="0 0 41 40" fill="none" xmlns="http://www.w3.org/2000/svg">
<g clip-path="url(#clip0_134_1658)">
<path d="M6.17383 5.85791V11.8176C7.96488 11.095 9.94664 10.9828 11.7969 11.481C11.2987 9.63072 11.4109 7.64896 12.1335 5.85791H6.17383Z" fill="#F37653"/>
<path d="M28.836 11.4753C29.5793 11.2754 30.3536 11.1718 31.1439 11.1718C32.2983 11.1718 33.4188 11.3924 34.4577 11.8128V5.85791H28.498C29.2198 7.64709 29.3325 9.62674 28.836 11.4753Z" fill="#F37653"/>
<path d="M34.4578 34.1421V28.1872C33.4189 28.6076 32.2984 28.8282 31.1439 28.8282C30.3536 28.8282 29.5793 28.7246 28.836 28.5246C29.3325 30.3733 29.2198 32.3529 28.498 34.1422H34.4578V34.1421Z" fill="#F37653"/>
<path d="M11.7955 28.5246C11.0522 28.7246 10.278 28.8282 9.48767 28.8282C8.33318 28.8282 7.21274 28.6076 6.17383 28.1872V34.1421H12.1335C11.4117 32.3529 11.299 30.3733 11.7955 28.5246Z" fill="#F37653"/>
<path d="M16.1016 4.21405C17.8789 4.96963 19.3596 6.29156 20.3156 7.95211C21.2717 6.29148 22.7524 4.96955 24.5297 4.21405L20.3156 0L16.1016 4.21405Z" fill="#F37653"/>
<path d="M19.1448 12.3432C19.1448 9.435 17.2206 6.96787 14.5784 6.14778C13.2901 8.59593 13.6739 11.7011 15.7303 13.7575L19.1448 17.1719V12.3432Z" fill="#F37653"/>
<path d="M21.4883 12.3432V17.1719L24.9027 13.7575C26.9591 11.7011 27.343 8.59592 26.0546 6.14777C23.4125 6.96785 21.4883 9.43498 21.4883 12.3432Z" fill="#F37653"/>
<path d="M36.1013 15.7859C35.3458 17.5632 34.0238 19.044 32.3633 19.9999C34.0239 20.956 35.3458 22.4367 36.1013 24.214L40.3154 19.9999L36.1013 15.7859Z" fill="#F37653"/>
<path d="M34.1692 14.2603C33.248 13.7735 32.2163 13.5146 31.1447 13.5146C29.4124 13.5146 27.7838 14.1892 26.5589 15.4142L23.1445 18.8286H27.9733C30.8822 18.8285 33.3497 16.9034 34.1692 14.2603Z" fill="#F37653"/>
<path d="M27.9733 21.1714H23.1445L26.5589 24.5858C27.7838 25.8108 29.4124 26.4854 31.1447 26.4854C32.2163 26.4854 33.248 26.2265 34.1692 25.7397C33.3497 23.0966 30.8822 21.1714 27.9733 21.1714Z" fill="#F37653"/>
<path d="M24.5297 35.786C22.7524 35.0304 21.2717 33.7085 20.3156 32.0479C19.3596 33.7085 17.8789 35.0305 16.1016 35.786L20.3156 40L24.5297 35.786Z" fill="#F37653"/>
<path d="M21.4883 27.6568C21.4883 30.565 23.4125 33.0321 26.0546 33.8522C27.343 31.4041 26.9591 28.299 24.9027 26.2425L21.4883 22.8281V27.6568Z" fill="#F37653"/>
<path d="M19.1448 27.6568V22.8281L15.7303 26.2425C13.6739 28.2989 13.2901 31.4041 14.5784 33.8522C17.2206 33.0321 19.1448 30.565 19.1448 27.6568Z" fill="#F37653"/>
<path d="M8.2686 20C6.60796 19.0439 5.28604 17.5632 4.53046 15.7859L0.316406 20L4.53046 24.214C5.28604 22.4367 6.60796 20.956 8.2686 20Z" fill="#F37653"/>
<path d="M12.6602 18.8285H17.4889L14.0745 15.4141C12.0181 13.3578 8.91291 12.9738 6.46484 14.2622C7.28485 16.9043 9.75198 18.8285 12.6602 18.8285Z" fill="#F37653"/>
<path d="M14.0732 24.5858L17.4875 21.1714H12.6589C9.74995 21.1714 7.28243 23.0965 6.46289 25.7397C7.38411 26.2265 8.41568 26.4853 9.48731 26.4853C11.2196 26.4853 12.8482 25.8108 14.0732 24.5858Z" fill="#F37653"/>
</g>
<defs>
<clipPath id="clip0_134_1658">
<rect width="40" height="40" fill="white" transform="translate(0.316406)"/>
</clipPath>
</defs>
</svg>
