<svg width="92" height="92" viewBox="0 0 92 92" fill="none" xmlns="http://www.w3.org/2000/svg">
<path d="M46 55.4336C51.21 55.4336 55.4336 51.21 55.4336 46C55.4336 40.79 51.21 36.5664 46 36.5664C40.79 36.5664 36.5664 40.79 36.5664 46C36.5664 51.21 40.79 55.4336 46 55.4336Z" fill="white"/>
<path d="M46 1.07812C21.1904 1.07812 1.07812 21.1904 1.07812 46C1.07812 70.8096 21.1904 90.9219 46 90.9219C70.8096 90.9219 90.9219 70.8096 90.9219 46C90.9219 21.1904 70.8096 1.07812 46 1.07812ZM73.7542 57.4173C73.5386 61.6882 72.3384 65.8997 69.226 68.979C66.0835 72.0876 61.852 73.2458 57.5401 73.4593H34.4601C30.1476 73.2458 25.9167 72.0883 22.7741 68.979C19.6616 65.8997 18.4616 61.6882 18.246 57.4173V34.5827C18.4616 30.3118 19.6618 26.1003 22.7741 23.0208C25.9167 19.9123 30.1481 18.754 34.4601 18.5407H57.5399C61.8524 18.754 66.0833 19.9117 69.2259 23.0208C72.3384 26.1003 73.5384 30.3118 73.754 34.5827L73.7542 57.4173Z" fill="white"/>
<path d="M57.249 23.7436C51.6273 23.5894 40.3753 23.5894 34.7536 23.7436C31.8281 23.8239 28.5116 24.5522 26.4272 26.7785C24.2613 29.0927 23.4428 31.8886 23.3598 35.0164C23.2139 40.5062 23.3598 56.9836 23.3598 56.9836C23.4548 60.111 24.2613 62.9073 26.4272 65.2215C28.5116 67.4486 31.8281 68.1761 34.7536 68.2565C40.3753 68.4106 51.6273 68.4106 57.249 68.2565C60.1745 68.1761 63.491 67.4479 65.5754 65.2215C67.7413 62.9073 68.5598 60.1114 68.6428 56.9836V35.0164C68.5598 31.8886 67.7413 29.0927 65.5754 26.7785C63.4903 24.5514 60.1738 23.8239 57.249 23.7436ZM46.0006 60.6221C43.1086 60.6221 40.2816 59.7645 37.877 58.1578C35.4724 56.5511 33.5983 54.2675 32.4915 51.5956C31.3848 48.9238 31.0953 45.9838 31.6595 43.1474C32.2237 40.311 33.6163 37.7056 35.6612 35.6606C37.7061 33.6157 40.3115 32.2231 43.1479 31.6589C45.9844 31.0947 48.9244 31.3843 51.5962 32.491C54.268 33.5977 56.5517 35.4718 58.1584 37.8764C59.7651 40.281 60.6226 43.108 60.6226 46C60.6226 49.878 59.0821 53.5972 56.3399 56.3394C53.5978 59.0815 49.8786 60.6221 46.0006 60.6221ZM60.6848 34.3962C60.1065 34.396 59.5411 34.2244 59.0603 33.903C58.5795 33.5815 58.2048 33.1247 57.9835 32.5904C57.7623 32.056 57.7045 31.468 57.8174 30.9008C57.9303 30.3335 58.2089 29.8125 58.6179 29.4036C59.0269 28.9947 59.548 28.7162 60.1153 28.6035C60.6825 28.4907 61.2705 28.5486 61.8048 28.77C62.3391 28.9914 62.7958 29.3662 63.1171 29.8471C63.4384 30.328 63.6099 30.8934 63.6099 31.4717C63.6099 31.8558 63.5343 32.2362 63.3873 32.591C63.2403 32.9459 63.0248 33.2683 62.7532 33.5399C62.4815 33.8114 62.159 34.0268 61.8042 34.1737C61.4493 34.3207 61.0689 34.3962 60.6848 34.3962Z" fill="white"/>
</svg>
