<svg width="27" height="27" viewBox="0 0 27 27" fill="none" xmlns="http://www.w3.org/2000/svg">
<path d="M8.04128 13.7585C8.04128 16.7239 10.4606 19.1352 13.4192 19.1352C16.3779 19.1352 18.7953 16.7239 18.7953 13.7585C18.7953 10.793 16.3837 8.3817 13.4192 8.3817C10.4528 8.3817 8.04128 10.793 8.04128 13.7585Z" fill="white"/>
<path fill-rule="evenodd" clip-rule="evenodd" d="M22.9277 26.333C24.3459 25.7643 25.4324 24.6776 25.9931 23.2667C26.8351 21.1505 26.6411 16.105 26.6411 13.7585C26.6411 12.1387 26.7342 9.23608 26.513 6.89486C26.4141 5.84477 26.253 4.9077 25.9931 4.25025C25.4246 2.83228 24.3382 1.74533 22.9277 1.18392C21.1059 0.465594 17.1151 0.503668 14.5445 0.528405L13.4192 0.536165L12.2707 0.52792C9.69619 0.501971 5.73062 0.461714 3.9108 1.18392C2.49258 1.75261 1.40612 2.83955 0.845434 4.25025C0.385629 5.41504 0.234301 7.46767 0.193559 9.46913C0.158637 11.1034 0.197439 12.7038 0.197439 13.7585C0.197439 16.105 0.0014886 21.1435 0.845434 23.2667C1.41388 24.6846 2.50034 25.7716 3.9108 26.333C5.73256 27.0513 9.71947 27.0132 12.294 26.9885L13.4192 26.9807L14.5678 26.989C17.1384 27.0149 21.1059 27.0552 22.9277 26.333ZM5.14858 13.7585C5.14858 9.18078 8.8406 5.48828 13.4192 5.48828C17.996 5.48828 21.6899 9.18078 21.6899 13.7585C21.6899 18.3364 17.996 22.0286 13.4192 22.0286C8.8406 22.0286 5.14858 18.3364 5.14858 13.7585ZM22.0275 7.07892C23.0926 7.07892 23.9559 6.22237 23.9559 5.14997C23.9559 4.08461 23.0926 3.22103 22.0275 3.22103C20.9624 3.22103 20.099 4.08461 20.099 5.14997C20.099 6.21533 20.9546 7.07892 22.0275 7.07892Z" fill="white"/>
</svg>
