<svg width="41" height="40" viewBox="0 0 41 40" fill="none" xmlns="http://www.w3.org/2000/svg">
<path d="M38.4516 11.5919C38.435 11.5636 38.4139 11.5382 38.3891 11.5169H38.3847H38.3816C38.3708 11.5105 38.3595 11.505 38.3478 11.5006C38.3258 11.4866 38.3021 11.4754 38.2772 11.4675C38.2612 11.4641 38.2448 11.4622 38.2284 11.4619C38.2062 11.4594 38.1838 11.4594 38.1616 11.4619C38.1452 11.4642 38.129 11.4682 38.1134 11.4738C38.092 11.4792 38.0711 11.4865 38.0509 11.4956C38.036 11.5047 38.0218 11.5149 38.0084 11.5263C37.9943 11.5347 37.9809 11.5443 37.9684 11.555C37.4172 12.1344 37.0772 12.2619 36.9409 12.1894C36.1084 11.7463 36.6872 6.53 37.7016 1.95125C37.7016 1.94625 37.7016 1.94125 37.7016 1.93688C37.7091 1.89052 37.7059 1.84304 37.6922 1.79813C37.6887 1.78583 37.6845 1.77372 37.6797 1.76188C37.6601 1.71315 37.6285 1.67016 37.5878 1.63688C37.5448 1.60611 37.4947 1.58675 37.4422 1.58063C37.4293 1.57969 37.4163 1.57969 37.4034 1.58063C37.3568 1.57955 37.3105 1.58873 37.2678 1.6075C37.2634 1.6075 37.2578 1.6075 37.2534 1.6075C31.1809 4.795 29.2534 4.535 28.6422 4.09813C28.5241 4.01062 28.4316 3.893 28.3744 3.75756C28.3172 3.62212 28.2975 3.47381 28.3172 3.32813C28.3172 3.32188 28.3141 3.31625 28.3172 3.30938C28.323 3.25808 28.3161 3.20616 28.2972 3.15813C28.2934 3.15 28.2928 3.14125 28.2884 3.13313C28.2685 3.09067 28.2387 3.05359 28.2016 3.025C28.1934 3.01875 28.1841 3.0175 28.1753 3.01188C28.1666 3.00625 28.1697 3.00313 28.1647 3.00063C28.1597 2.99813 28.1497 3.00063 28.1428 2.99625C28.0941 2.97186 28.0398 2.96066 27.9853 2.96375C27.9824 2.96406 27.9795 2.96406 27.9766 2.96375C27.9182 2.97099 27.863 2.99437 27.8172 3.03125C27.8116 3.03563 27.8041 3.035 27.7991 3.03938C24.6791 5.8125 23.0997 6.0625 22.3247 5.78125C22.0898 5.67945 21.8843 5.52019 21.7272 5.31813C21.57 5.11607 21.4662 4.87771 21.4253 4.625C21.4157 4.55764 21.3844 4.49525 21.3361 4.44731C21.2879 4.39937 21.2252 4.36849 21.1578 4.35938C21.09 4.3495 21.0207 4.36259 20.9612 4.39656C20.9016 4.43053 20.8551 4.48344 20.8291 4.54688C18.9859 8.8125 17.6234 9.50625 16.9753 9.54063C16.7344 9.52498 16.5011 9.4504 16.2957 9.32344C16.0904 9.19648 15.9194 9.02102 15.7978 8.8125L15.7916 8.80563C15.768 8.76687 15.7359 8.73396 15.6978 8.70938C15.683 8.69937 15.6673 8.69079 15.6509 8.68375C15.6394 8.67631 15.6273 8.66983 15.6147 8.66438C15.5867 8.65738 15.5579 8.65464 15.5291 8.65625C15.5209 8.65625 15.5153 8.65063 15.5072 8.65125H15.5003C15.4497 8.65593 15.401 8.67288 15.3584 8.70063C15.348 8.70843 15.338 8.71678 15.3284 8.72563C15.2968 8.75173 15.2708 8.78407 15.2522 8.82063C15.2478 8.82813 15.2397 8.8325 15.2359 8.84063C12.5609 15.2313 10.6422 16.25 9.73595 16.2925C9.41795 16.2777 9.10952 16.1791 8.84184 16.0068C8.57417 15.8345 8.35674 15.5946 8.21157 15.3113C8.20782 15.3044 8.20032 15.3025 8.19595 15.2963C8.16859 15.2485 8.12886 15.209 8.08095 15.1819L8.0747 15.1775C8.0379 15.1588 7.99775 15.1475 7.95657 15.1444C7.94035 15.1451 7.92423 15.1474 7.90845 15.1513C7.90095 15.1513 7.89532 15.1463 7.8872 15.1475C7.87907 15.1488 7.87657 15.155 7.87032 15.1563C7.81853 15.1671 7.77036 15.191 7.73032 15.2256C7.72007 15.2367 7.71047 15.2484 7.70157 15.2606C7.67256 15.2942 7.65123 15.3336 7.63907 15.3763C7.63907 15.385 7.62782 15.3906 7.62595 15.4C6.18407 23.27 4.97657 24.0513 4.64095 24.1031C4.40032 24.1431 4.21845 23.8031 4.2172 23.8019C4.18011 23.7318 4.11778 23.6784 4.04283 23.6526C3.96788 23.6268 3.88591 23.6304 3.81352 23.6627C3.74114 23.6951 3.68375 23.7537 3.65298 23.8268C3.62222 23.8998 3.62037 23.9819 3.64782 24.0563C6.11532 30.5225 6.01657 34.8269 5.94657 35.8506C4.84677 36.6788 3.63377 37.3447 2.3447 37.8281C2.30465 37.84 2.26739 37.8598 2.23513 37.8863C2.20286 37.9129 2.17624 37.9456 2.15684 37.9826C2.13744 38.0196 2.12565 38.0601 2.12218 38.1017C2.1187 38.1433 2.12361 38.1852 2.1366 38.2249C2.1496 38.2646 2.17042 38.3013 2.19784 38.3328C2.22526 38.3644 2.25872 38.3901 2.29624 38.4084C2.33376 38.4268 2.37458 38.4374 2.41629 38.4397C2.458 38.442 2.49975 38.436 2.53907 38.4219C3.84954 37.9347 5.08449 37.2645 6.2072 36.4313C6.22464 36.4355 6.24241 36.4382 6.26032 36.4394C18.7303 35.4794 20.8291 37.2338 20.8422 37.2444C20.8961 37.2993 20.9684 37.3324 21.0453 37.3374C21.1221 37.3423 21.1981 37.3187 21.2586 37.271C21.3191 37.2234 21.3598 37.1551 21.3731 37.0792C21.3863 37.0034 21.3711 36.9253 21.3303 36.86C21.2498 36.7528 21.199 36.6262 21.1831 36.4931C21.1672 36.36 21.1867 36.225 21.2397 36.1019C21.7684 34.8825 25.1928 33.9825 26.4672 33.7381C26.5249 33.7271 26.5783 33.6999 26.6213 33.6599C26.6643 33.6199 26.6951 33.5685 26.7103 33.5117C26.7254 33.455 26.7242 33.3951 26.7069 33.3389C26.6895 33.2828 26.6567 33.2327 26.6122 33.1944C26.4459 33.0781 26.3143 32.9188 26.2315 32.7335C26.1487 32.5483 26.1178 32.344 26.1422 32.1425C26.3734 30.705 29.3922 28.9869 31.3209 28.07C31.9609 27.7988 32.3084 27.6269 32.3247 27.6188C32.3409 27.6106 32.3403 27.605 32.3497 27.5994C32.3712 27.5861 32.3911 27.5703 32.4091 27.5525C32.4193 27.5411 32.4287 27.529 32.4372 27.5163C32.4591 27.4853 32.475 27.4506 32.4841 27.4138C32.4893 27.3916 32.492 27.369 32.4922 27.3463C32.4934 27.3311 32.4934 27.3158 32.4922 27.3006C32.4922 27.2913 32.4922 27.2831 32.4922 27.2744C32.4872 27.2598 32.4811 27.2456 32.4741 27.2319C32.4717 27.2209 32.4688 27.21 32.4653 27.1994C32.4653 27.1938 32.4572 27.1906 32.4547 27.1856C32.4442 27.1692 32.432 27.154 32.4184 27.14C32.4058 27.1237 32.3915 27.1086 32.3759 27.095C32.3655 27.0878 32.3544 27.0815 32.3428 27.0763C32.3184 27.0607 32.2919 27.0487 32.2641 27.0406C32.236 27.0316 32.2067 27.0272 32.1772 27.0275C31.8022 27.0413 31.5866 26.965 31.5166 26.81C31.1453 25.9975 33.2884 23.1325 34.9284 21.3606C34.9807 21.3046 35.0105 21.2313 35.0122 21.1548C35.014 21.0782 34.9876 21.0036 34.938 20.9453C34.8884 20.8869 34.8191 20.8488 34.7433 20.8381C34.6674 20.8275 34.5903 20.845 34.5266 20.8875C33.8022 21.3656 33.5816 21.3313 33.5784 21.3406C33.1928 20.71 35.8084 15.9656 38.4534 11.9331C38.4639 11.9132 38.4723 11.8923 38.4784 11.8706C38.4852 11.8574 38.4909 11.8436 38.4953 11.8294C38.5005 11.8018 38.502 11.7736 38.4997 11.7456C38.5003 11.7348 38.5003 11.724 38.4997 11.7131C38.4939 11.6743 38.4807 11.637 38.4609 11.6031C38.4597 11.6 38.4547 11.5963 38.4516 11.5919Z" fill="#F89958"/>
</svg>
