<svg width="1800" height="2452" viewBox="0 0 1800 2452" fill="none" xmlns="http://www.w3.org/2000/svg">
<g opacity="0.2">
<path d="M1579.04 1276.2C1643.76 1283.48 1705.12 1290.41 1768.24 1297.51C1768 1302.01 1768.12 1308.12 1767.39 1314.11C1724.12 1657.53 1545.03 1904.55 1225.13 2032.04C904.382 2159.82 599.648 2106.89 334.958 1883.29C-24.3547 1579.79 -81.4203 1062 200.141 693.298C377.967 460.458 618.219 347.726 911.793 349.55C950.07 349.802 980.067 366.039 998.046 400.265C1015.01 432.601 1014.09 465.618 993.761 496.375C973.071 527.691 942.984 540.571 905.576 539.788C790.186 537.317 681.524 563.665 578.921 616.233C240.411 789.63 113.702 1214.1 301.502 1545.98C476.906 1855.93 838.3 1988.63 1158.55 1854.28C1398.12 1753.75 1536.73 1569.68 1576.48 1312.09C1578.31 1300.32 1578.25 1288.27 1579.1 1276.21L1579.04 1276.2Z" fill="#F89958"/>
<path opacity="0.8" fill-rule="evenodd" clip-rule="evenodd" d="M1677.06 867.318C1678.25 866.768 1679.66 867.286 1680.21 868.477C1723.15 961.991 1749.62 1062.22 1758.44 1164.76L1562.79 1181.59C1555.92 1101.77 1535.34 1023.73 1501.97 950.901C1501.42 949.709 1501.94 948.299 1503.13 947.749L1677.06 867.318Z" fill="#F89958"/>
<path opacity="0.6" fill-rule="evenodd" clip-rule="evenodd" d="M1511.99 625.17C1512.94 624.264 1514.44 624.297 1515.35 625.246C1558.5 670.578 1596.78 720.32 1629.54 773.652C1630.23 774.769 1629.87 776.23 1628.76 776.913L1465.21 876.785C1464.09 877.468 1462.63 877.114 1461.94 875.998C1436.53 834.704 1406.88 796.173 1373.48 761.031C1372.57 760.081 1372.61 758.579 1373.55 757.673L1511.99 625.17Z" fill="#F89958"/>
<path opacity="0.45" fill-rule="evenodd" clip-rule="evenodd" d="M1332.3 481.513C1333.21 480.022 1335.16 479.551 1336.65 480.467C1373.94 503.427 1409.5 529.098 1443.03 557.273C1444.37 558.397 1444.53 560.394 1443.4 561.728L1320.63 706.794C1319.5 708.128 1317.5 708.294 1316.16 707.171C1290.34 685.513 1262.97 665.757 1234.29 648.058C1232.8 647.14 1232.33 645.193 1233.24 643.702L1332.3 481.513Z" fill="#F89958"/>
<path opacity="0.3" fill-rule="evenodd" clip-rule="evenodd" d="M1188.4 411.432C1189.19 409.394 1191.48 408.378 1193.51 409.174C1217.55 418.572 1241.18 429.008 1264.31 440.451C1266.27 441.42 1267.06 443.797 1266.09 445.75L1181.79 614.312C1180.81 616.266 1178.43 617.057 1176.48 616.091C1158.93 607.441 1141.03 599.533 1122.82 592.389C1120.79 591.591 1119.77 589.303 1120.56 587.265L1188.4 411.432Z" fill="#F89958"/>
</g>
</svg>
