<svg width="875" height="889" viewBox="0 0 875 889" fill="none" xmlns="http://www.w3.org/2000/svg">
<g opacity="0.2">
<path d="M692.435 679.662C715.751 702.929 737.852 724.998 760.593 747.687C759.079 749.396 757.204 751.853 755.03 753.99C629.734 876.259 481.059 917.6 314.311 867.286C147.136 816.823 43.217 699.895 8.90404 528.038C-37.6849 294.758 102.828 71.883 330.38 14.6687C474.09 -21.4588 604.671 9.60525 720.27 102.798C735.337 114.954 742.093 130.828 738.428 150.035C734.954 168.173 724.191 180.949 706.459 186.718C688.407 192.593 672.444 188.213 657.888 176.121C613.004 138.797 561.705 114.997 504.545 103.481C315.973 65.4736 132.132 193.533 101.911 384.019C73.6938 561.922 174.906 728.267 343.956 775.974C470.424 811.653 583.252 782.469 680.117 693.058C684.55 688.977 688.322 684.192 692.457 679.684L692.435 679.662Z" fill="#93BCB4"/>
<path opacity="0.8" fill-rule="evenodd" clip-rule="evenodd" d="M858.874 548.456C860.147 548.766 860.928 550.051 860.611 551.322C848.114 601.436 827.117 649.042 798.527 692.07L715.802 637.104C738.011 603.677 754.348 566.71 764.114 527.796C764.433 526.524 765.716 525.743 766.989 526.054L858.874 548.456Z" fill="#686CB2"/>
<path opacity="0.6" fill-rule="evenodd" clip-rule="evenodd" d="M869.794 401.024C871.099 400.905 872.255 401.866 872.367 403.172C875.018 433.931 874.51 464.881 870.851 495.536C870.695 496.838 869.509 497.761 868.208 497.598L774.359 485.896C773.059 485.734 772.137 484.548 772.29 483.246C775.069 459.67 775.46 435.874 773.456 412.219C773.346 410.913 774.306 409.759 775.611 409.639L869.794 401.024Z" fill="#F89958"/>
<path opacity="0.45" fill-rule="evenodd" clip-rule="evenodd" d="M843.637 288.007C845.278 287.408 847.096 288.252 847.684 289.897C854.787 309.773 860.488 330.122 864.747 350.795C865.099 352.506 863.985 354.172 862.271 354.513L771.06 372.637C769.346 372.978 767.682 371.864 767.326 370.153C764.067 354.485 759.744 339.057 754.388 323.976C753.803 322.329 754.646 320.513 756.288 319.913L843.637 288.007Z" fill="#F89958"/>
<path opacity="0.3" fill-rule="evenodd" clip-rule="evenodd" d="M808.549 215.401C810.433 214.296 812.858 214.927 813.946 216.821C819.802 227.01 825.257 237.425 830.3 248.04C831.238 250.013 830.376 252.365 828.395 253.286L745.488 291.79C743.507 292.71 741.157 291.849 740.215 289.878C736.509 282.129 732.522 274.517 728.261 267.059C727.178 265.163 727.808 262.74 729.692 261.636L808.549 215.401Z" fill="#F89958"/>
</g>
</svg>
