<svg width="160" height="35" viewBox="0 0 160 35" fill="none" xmlns="http://www.w3.org/2000/svg">
<path fill-rule="evenodd" clip-rule="evenodd" d="M40.1055 9.52235H47.134V29.2745H52.9747V9.52235H60.0041V4.52215H40.1055V9.52235ZM54.6582 29.2745H60.796L62.545 24.2751H69.7047L71.3891 29.2745H77.4281L68.9136 4.523H62.528L54.6582 29.2745ZM68.0187 19.7765H63.7559L65.8984 13.8192L68.0187 19.7765ZM77.9237 29.2745H83.566V20.3641H87.6261C88.4827 20.3641 89.4773 20.2082 89.9857 20.9048C90.494 21.6013 90.4463 22.8139 90.4285 24.0674C90.4089 25.3208 90.4148 26.6134 90.6992 27.5357C90.982 28.4579 91.4912 29.2745 92.2295 29.2745H97.3267C96.7414 28.6591 96.3264 27.902 96.1227 27.0775C95.9217 26.2481 95.9498 25.3447 95.9864 24.3433C96.023 23.3427 96.0664 22.2451 95.9498 21.345C95.8348 20.4432 95.5624 19.7399 95.1161 19.183C94.6645 18.6256 94.0571 18.2153 93.3714 18.0045C94.4477 17.2321 95.3503 16.2043 95.8996 15.1144C96.4471 14.0252 96.6395 12.8748 96.7128 11.7355C96.786 10.5961 96.7375 9.4687 96.3781 8.39747C96.0171 7.32624 95.3452 6.31037 94.4409 5.61382C93.5272 4.91279 92.4094 4.52973 91.2579 4.523H77.9229L77.9237 29.2745ZM90.1194 10.0001C90.798 10.4488 91.2119 11.2722 91.2017 12.1059C91.1914 12.5317 91.0813 12.9491 90.8804 13.3246C90.6794 13.7002 90.393 14.0232 90.0444 14.2679C89.3359 14.755 88.3848 14.6511 87.5 14.6511H83.5617V9.75992H87.7163C88.5457 9.75992 89.439 9.5513 90.1194 10.0001ZM99.6684 8.90328C98.8203 10.1567 98.1953 11.6282 97.8555 13.5101C97.5166 15.392 97.4613 17.6851 97.767 19.6862C98.071 21.6882 98.7369 23.3972 99.545 24.7222C100.353 26.0472 101.304 26.9864 102.341 27.7886C103.377 28.5907 104.494 29.2549 105.755 29.6279C107.026 29.9954 108.361 30.0871 109.671 29.897C110.93 29.7096 112.047 29.2523 112.918 28.8564C113.788 28.4596 114.412 28.1241 114.997 27.7307L115.988 29.2736H119.652L119.644 15.3962H109.149V20.238H114.07C114.262 21.0734 114.147 21.9879 113.723 22.7492C113.299 23.5096 112.564 24.1168 111.523 24.5459C110.481 24.9743 109.134 25.2237 107.822 24.8261C106.511 24.4284 105.237 23.3836 104.398 22.1872C103.56 20.9925 103.155 19.6454 102.977 18.1543C102.801 16.6641 102.851 15.0292 103.208 13.6037C103.565 12.1783 104.229 10.9606 105.063 10.0835C105.897 9.20643 106.902 8.67081 108.168 8.44175C109.433 8.21269 110.958 8.29188 111.975 8.859C112.992 9.42612 113.502 10.4803 113.795 11.1505C114.087 11.8206 114.166 12.1059 114.175 12.3988H119.447C119.369 11.3037 119.058 10.2334 118.429 9.01058C117.799 7.78778 116.854 6.41426 115.51 5.44606C114.167 4.47787 112.425 3.91671 110.812 3.70383C109.327 3.50081 107.816 3.60075 106.371 3.9976C105.034 4.36802 103.844 4.97346 102.715 5.79264C101.586 6.61436 100.516 7.64983 99.6684 8.90328ZM139.155 29.2745V24.2751H127.523V18.5324L137.52 18.512L137.522 13.9784H127.523V9.5232H139.155V4.523L121.704 4.52641L121.732 29.2745H139.155ZM139.997 9.52235H147.027V29.2745H152.868V9.52235H159.896V4.52215H139.997V9.52235ZM155.686 28.1641H156.007V28.1019C155.96 28.1028 155.895 28.0875 155.867 28.0253L155.623 27.62C155.855 27.5459 155.949 27.247 155.708 27.0877C155.603 27.0315 155.513 27.023 155.378 27.0196H154.785V27.075C154.851 27.0588 154.971 27.1082 154.946 27.1942C154.941 27.4812 154.959 27.7502 154.932 28.0551C154.882 28.1198 154.857 28.0951 154.791 28.1019V28.1641H155.371V28.1019C155.308 28.1173 155.185 28.0696 155.21 27.9827V27.62H155.371L155.686 28.1641ZM155.21 27.5629V27.0954C155.351 27.0886 155.571 27.1167 155.571 27.2845C155.583 27.3517 155.571 27.5459 155.405 27.5586C155.346 27.568 155.274 27.5621 155.21 27.5629ZM155.349 28.681C155.554 28.681 155.775 28.6239 155.986 28.4732C156.505 28.044 156.581 27.5084 156.232 26.9592C155.801 26.4355 155.264 26.358 154.707 26.7114C154.185 27.1397 154.109 27.6753 154.459 28.2254C154.709 28.5575 155.035 28.6776 155.349 28.681ZM155.349 28.5618C155.17 28.5618 154.972 28.5107 154.784 28.377C154.32 27.9938 154.25 27.5178 154.564 27.0222C154.945 26.5598 155.424 26.4925 155.915 26.805C156.379 27.1865 156.449 27.6659 156.136 28.1556C155.915 28.4511 155.623 28.5592 155.349 28.5618Z" fill="black"/>
<path fill-rule="evenodd" clip-rule="evenodd" d="M20.4966 12.5063C19.6229 12.0022 18.6138 11.7314 17.6048 11.7314C16.5957 11.7314 15.5866 12.0022 14.713 12.5063C13.8345 13.0156 13.1045 13.7457 12.5952 14.6241C12.0894 15.5041 11.8222 16.5009 11.8203 17.5159C11.8203 18.5258 12.0911 19.5349 12.5952 20.4086C13.1002 21.2822 13.8384 22.0214 14.713 22.5255C15.5875 23.0296 16.5957 23.3004 17.6048 23.3004C18.6138 23.3004 19.6229 23.0304 20.4966 22.5255C21.3702 22.0205 22.1094 21.2822 22.6143 20.4086C23.1203 19.5284 23.3875 18.5312 23.3892 17.5159C23.3892 16.5068 23.1193 15.4978 22.6143 14.6241C22.1051 13.7457 21.375 13.0156 20.4966 12.5063Z" fill="#CA3432"/>
<path fill-rule="evenodd" clip-rule="evenodd" d="M32.2715 9.04154C30.7906 6.47587 28.6218 4.30701 26.057 2.8262C23.4922 1.34538 20.5288 0.551758 17.5663 0.551758C14.6039 0.551758 11.6422 1.34538 9.07656 2.8262C6.49824 4.32053 4.35556 6.46321 2.86123 9.04154C1.37957 11.6072 0.585938 14.5697 0.585938 17.5322C0.585938 20.4946 1.37957 23.4571 2.86123 26.0228C4.35506 28.6015 6.49785 30.7443 9.07656 32.2381C11.6595 33.7244 14.5864 34.5088 17.5663 34.5134C20.5288 34.5134 23.4913 33.7198 26.057 32.2381C28.6226 30.7573 30.7906 28.5885 32.2715 26.0228C33.7523 23.4571 34.5459 20.4946 34.5459 17.5322C34.5459 14.5697 33.7523 11.6063 32.2715 9.04154ZM27.2959 23.1472C26.3112 24.8473 24.8985 26.2599 23.1984 27.2447C21.495 28.2241 19.5652 28.741 17.6004 28.7443C15.6478 28.7443 13.6953 28.2214 12.0033 27.2447C10.3121 26.268 8.88242 24.8383 7.90571 23.1472C6.929 21.456 6.40616 19.5026 6.40616 17.55C6.40616 15.5966 6.929 13.6432 7.90571 11.9521C8.88242 10.2609 10.3121 8.83035 12.0033 7.8545C13.7062 6.87488 15.6358 6.35791 17.6004 6.35495C19.5538 6.35495 21.5064 6.87779 23.1984 7.8545C24.8983 8.83954 26.3109 10.2522 27.2959 11.9521C28.2759 13.6552 28.7932 15.5851 28.7964 17.55C28.7927 19.5146 28.2755 21.4442 27.2959 23.1472Z" fill="#CA3432"/>
</svg>
