<svg width="92" height="92" viewBox="0 0 92 92" fill="none" xmlns="http://www.w3.org/2000/svg">
<g clip-path="url(#clip0_486_2543)">
<path d="M46 0C20.5988 0 0 20.5988 0 46C0 71.4012 20.5988 92 46 92C71.4012 92 92 71.4012 92 46C92 20.5988 71.4012 0 46 0ZM69.0773 35.1959V41.4244C66.1403 41.4255 63.2867 40.85 60.5953 39.7145C58.8647 38.9839 57.2524 38.0425 55.7777 36.9049L55.8219 56.0763C55.8034 60.3933 54.0955 64.4494 51.0043 67.5046C48.4887 69.9915 45.301 71.5729 41.846 72.0849C41.0342 72.2051 40.208 72.2667 39.3724 72.2667C35.6739 72.2667 32.1626 71.0686 29.2903 68.858C28.7498 68.4419 28.2329 67.9907 27.7407 67.5046C24.3906 64.1935 22.6631 59.706 22.954 54.9851C23.1759 51.3915 24.6147 47.9643 27.0131 45.2782C30.1864 41.7236 34.6258 39.7506 39.3724 39.7506C40.208 39.7506 41.0342 39.8134 41.846 39.9336V42.2364V48.6427C41.0762 48.3888 40.2541 48.2491 39.3981 48.2491C35.0615 48.2491 31.5531 51.7872 31.618 56.127C31.6591 58.9037 33.1759 61.3309 35.413 62.6689C36.4643 63.2978 37.6738 63.6874 38.9645 63.7582C39.9758 63.8137 40.9468 63.6728 41.846 63.376C44.9443 62.3525 47.1795 59.4422 47.1795 56.0099L47.1897 43.1717V19.7333H55.7673C55.7755 20.5832 55.8618 21.4125 56.0221 22.216C56.6695 25.4685 58.5028 28.2904 61.0544 30.2141C63.2793 31.8922 66.0497 32.8869 69.0525 32.8869C69.0544 32.8869 69.0792 32.8869 69.0771 32.885V35.1959H69.0773Z" fill="white"/>
</g>
<defs>
<clipPath id="clip0_486_2543">
<rect width="92" height="92" fill="white"/>
</clipPath>
</defs>
</svg>
