<svg width="39" height="27" viewBox="0 0 39 27" fill="none" xmlns="http://www.w3.org/2000/svg">
<path d="M37.2315 4.66033C36.7984 3.02927 35.5221 1.74469 33.9016 1.30875C30.9643 0.516602 19.1861 0.516602 19.1861 0.516602C19.1861 0.516602 7.40792 0.516602 4.47055 1.30875C2.85004 1.74476 1.57374 3.02927 1.14056 4.66033C0.353516 7.61673 0.353516 13.785 0.353516 13.785C0.353516 13.785 0.353516 19.9532 1.14056 22.9096C1.57374 24.5407 2.85004 25.7717 4.47055 26.2077C7.40792 26.9998 19.1861 26.9998 19.1861 26.9998C19.1861 26.9998 30.9642 26.9998 33.9016 26.2077C35.5221 25.7717 36.7984 24.5407 37.2315 22.9096C38.0186 19.9532 38.0186 13.785 38.0186 13.785C38.0186 13.785 38.0186 7.61673 37.2315 4.66033ZM15.3339 19.3853V8.18467L25.1782 13.7851L15.3339 19.3853Z" fill="white"/>
</svg>
